<svg width="244" height="277" viewBox="0 0 244 277" fill="none" xmlns="http://www.w3.org/2000/svg">
<g clip-path="url(#clip0)">
<path d="M58.12 111.87C58.12 109.497 58.8238 107.177 60.1424 105.203C61.4609 103.23 63.3351 101.692 65.5278 100.783C67.7205 99.8752 70.1333 99.6376 72.4611 100.101C74.7889 100.564 76.927 101.706 78.6053 103.385C80.2835 105.063 81.4264 107.201 81.8894 109.529C82.3524 111.857 82.1148 114.269 81.2066 116.462C80.2983 118.655 78.7602 120.529 76.7868 121.848C74.8135 123.166 72.4934 123.87 70.12 123.87C66.9374 123.87 63.8852 122.606 61.6347 120.355C59.3843 118.105 58.12 115.053 58.12 111.87V111.87ZM54 183C44.5211 175.222 35.8475 166.512 28.11 157C36.0409 148.195 44.6543 140.03 53.87 132.58C54.3647 132.207 54.7789 131.738 55.0876 131.201C55.3962 130.664 55.593 130.07 55.666 129.455C55.739 128.84 55.6867 128.216 55.5123 127.622C55.338 127.027 55.0451 126.474 54.6513 125.996C54.2575 125.518 53.771 125.125 53.2211 124.839C52.6712 124.554 52.0693 124.383 51.4516 124.337C50.8339 124.291 50.2132 124.37 49.6268 124.57C49.0405 124.769 48.5007 125.086 48.04 125.5C38.9812 132.842 30.478 140.844 22.6 149.44C14.7 137.44 12.04 127.13 15.87 120.5C19.58 114.08 29.74 111.02 44.49 111.9C45.6848 111.939 46.8475 111.51 47.7308 110.704C48.6142 109.899 49.1485 108.781 49.2202 107.588C49.2918 106.394 48.8951 105.22 48.1145 104.315C47.3338 103.41 46.2308 102.845 45.04 102.74C26.37 101.66 13.54 106.22 7.95 116C4.4 122.15 2.31 133.14 12.52 150.6C13.7 152.6 15.03 154.68 16.52 156.76C2.25 174.58 -2.55 190 3.54 200.57C8.13 208.57 18.05 212.57 32.54 212.57C37.9541 212.526 43.3568 212.064 48.7 211.19C49.9014 211.003 50.9794 210.346 51.6967 209.365C52.414 208.383 52.712 207.156 52.525 205.955C52.338 204.754 51.6814 203.676 50.6997 202.958C49.7179 202.241 48.4914 201.943 47.29 202.13C28.46 205.07 15.4 202.82 11.45 195.98C8.03 190.06 10.86 178.98 22.11 164.25C29.9503 173.642 38.6552 182.276 48.11 190.04C48.5602 190.488 49.0983 190.837 49.6905 191.066C50.2826 191.295 50.9158 191.399 51.55 191.371C52.1842 191.343 52.8058 191.183 53.3752 190.903C53.9447 190.622 54.4498 190.226 54.8586 189.74C55.2673 189.255 55.5708 188.689 55.75 188.08C55.9291 187.471 55.9799 186.832 55.8992 186.202C55.8185 185.572 55.6081 184.966 55.2812 184.422C54.9543 183.878 54.518 183.407 54 183.04V183ZM67.31 132.88C66.0944 132.88 64.9284 133.362 64.0679 134.221C63.2074 135.079 62.7226 136.244 62.72 137.46V138.33C62.72 150.8 63.31 163.16 64.46 175.07C64.5714 176.204 65.0994 177.255 65.9418 178.022C66.7842 178.789 67.881 179.216 69.02 179.22C69.1698 179.23 69.3202 179.23 69.47 179.22C70.6802 179.104 71.7949 178.512 72.5692 177.574C73.3435 176.637 73.7142 175.43 73.6 174.22C72.47 162.61 71.89 150.54 71.89 138.37V137.52C71.894 136.915 71.7785 136.315 71.5504 135.755C71.3222 135.195 70.9858 134.685 70.5604 134.255C70.135 133.825 69.6289 133.483 69.0711 133.249C68.5134 133.015 67.9149 132.893 67.31 132.89V132.88ZM136.2 168.17C123.097 175.514 109.563 182.06 95.67 187.77C94.5428 188.23 93.6446 189.119 93.173 190.242C92.7013 191.364 92.6948 192.628 93.155 193.755C93.6151 194.882 94.5042 195.78 95.6266 196.252C96.749 196.724 98.0128 196.73 99.14 196.27C113.374 190.416 127.242 183.71 140.67 176.19C141.657 175.56 142.365 174.577 142.651 173.441C142.936 172.306 142.777 171.105 142.206 170.083C141.635 169.061 140.695 168.296 139.579 167.944C138.462 167.592 137.254 167.68 136.2 168.19V168.17ZM241.28 63.31C234.38 51.31 215.79 48.22 187.52 54.31C176.988 56.6322 166.63 59.6829 156.52 63.44C154.741 55.5588 152.49 47.7915 149.78 40.18C140.32 13.88 127.78 0 113.53 0C88.03 0 72.47 44.15 66.41 85.47C66.2674 86.6581 66.5945 87.855 67.3216 88.8054C68.0486 89.7559 69.1181 90.3849 70.3021 90.5583C71.4861 90.7317 72.691 90.4359 73.6601 89.7339C74.6292 89.0318 75.2858 87.9791 75.49 86.8C82.2 41.09 97.84 9.18 113.49 9.18C123.23 9.18 133.31 21.6 141.13 43.25C143.858 50.9211 146.099 58.7567 147.84 66.71C130.897 73.5664 114.463 81.6166 98.66 90.8C95.95 92.36 93.18 94 90.39 95.7C89.3833 96.348 88.6695 97.3636 88.4011 98.5304C88.1326 99.6971 88.3306 100.923 88.9529 101.945C89.5752 102.968 90.5725 103.707 91.7321 104.005C92.8917 104.303 94.1218 104.136 95.16 103.54C97.88 101.89 100.6 100.27 103.25 98.75C118.207 90.0537 133.747 82.4021 149.76 75.85C153.1 94.406 154.892 113.207 155.12 132.06C155.138 133.265 155.63 134.415 156.489 135.26C157.348 136.106 158.505 136.58 159.71 136.58H159.78C160.996 136.559 162.153 136.056 162.999 135.183C163.844 134.309 164.309 133.136 164.29 131.92C164.049 111.976 162.095 92.0895 158.45 72.48C197.81 57.93 226.95 56.91 233.34 67.9C236.82 73.9 233.76 84.19 224.72 96.8C214.92 110.48 199.1 125.64 178.98 140.62C178.206 141.197 177.634 142.003 177.345 142.923C177.055 143.844 177.063 144.833 177.368 145.748C177.672 146.664 178.258 147.461 179.041 148.025C179.824 148.589 180.765 148.891 181.73 148.89C182.715 148.894 183.674 148.574 184.46 147.98C205.33 132.44 221.83 116.59 232.18 102.15C240.14 91 248.19 75.27 241.28 63.31ZM184.65 167.82C184.19 167.426 183.658 167.126 183.082 166.938C182.507 166.75 181.9 166.677 181.296 166.724C180.693 166.77 180.104 166.935 179.564 167.209C179.025 167.483 178.544 167.86 178.15 168.32C177.756 168.78 177.456 169.312 177.268 169.888C177.08 170.463 177.007 171.07 177.054 171.674C177.1 172.277 177.265 172.866 177.539 173.406C177.813 173.945 178.19 174.426 178.65 174.82C206.74 199 221 223.16 214.16 235C209.42 243.2 194.54 245.81 173.32 242.15C165.384 240.737 157.555 238.776 149.89 236.28C155.15 221.66 159.16 203.86 161.62 183.92C161.694 183.322 161.65 182.716 161.49 182.136C161.33 181.555 161.057 181.012 160.687 180.537C160.317 180.062 159.857 179.665 159.333 179.368C158.81 179.07 158.233 178.879 157.635 178.805C157.037 178.731 156.431 178.775 155.851 178.935C155.27 179.095 154.727 179.368 154.252 179.738C153.777 180.108 153.38 180.568 153.083 181.092C152.785 181.615 152.594 182.192 152.52 182.79C150.13 202.15 146.26 219.34 141.21 233.31C125.432 227.463 110.186 220.27 95.64 211.81C94.5861 211.208 93.3368 211.048 92.1652 211.365C90.9936 211.682 89.9952 212.45 89.3883 213.501C88.7815 214.552 88.6156 215.8 88.927 216.973C89.2384 218.146 90.0017 219.148 91.05 219.76C105.981 228.433 121.624 235.816 137.81 241.83C137.31 242.95 136.81 244.05 136.3 245.11C129.3 259.54 121.3 267.49 113.53 267.49C102.35 267.49 90.86 251.21 82.8 223.96C82.6433 223.366 82.3691 222.81 81.9936 222.324C81.618 221.838 81.1488 221.433 80.6137 221.131C80.0786 220.83 79.4885 220.639 78.8783 220.57C78.2681 220.501 77.6502 220.555 77.0613 220.729C76.4724 220.903 75.9244 221.193 75.4497 221.583C74.975 221.973 74.5834 222.454 74.2979 222.997C74.0125 223.541 73.839 224.137 73.7878 224.748C73.7367 225.36 73.8088 225.976 74 226.56C83.56 258.87 97.6 276.66 113.53 276.66C125.14 276.66 135.87 267.13 144.53 249.1C145.2 247.72 145.84 246.29 146.47 244.83C154.73 247.542 163.171 249.667 171.73 251.19C177.816 252.29 183.985 252.869 190.17 252.92C205.92 252.92 217 248.37 222.07 239.58C231.65 223.07 217.65 196.24 184.65 167.82ZM142.09 137.59L139.19 135.89C125.467 127.922 111.147 121.028 96.36 115.27C95.793 115.028 95.1829 114.902 94.5663 114.901C93.9496 114.899 93.339 115.022 92.7709 115.262C92.2028 115.502 91.6889 115.854 91.2598 116.297C90.8306 116.739 90.4952 117.264 90.2733 117.84C90.0515 118.415 89.9479 119.029 89.9687 119.645C89.9895 120.262 90.1343 120.868 90.3944 121.427C90.6545 121.986 91.0246 122.487 91.4825 122.9C91.9405 123.313 92.477 123.629 93.06 123.83C107.405 129.414 121.297 136.101 134.61 143.83L137.42 145.48C137.939 145.805 138.518 146.023 139.123 146.12C139.728 146.218 140.346 146.193 140.941 146.048C141.536 145.904 142.096 145.641 142.588 145.276C143.08 144.911 143.494 144.452 143.806 143.925C144.117 143.397 144.32 142.813 144.403 142.206C144.485 141.599 144.445 140.982 144.285 140.391C144.125 139.799 143.849 139.246 143.472 138.763C143.095 138.281 142.625 137.878 142.09 137.58V137.59ZM84.95 200.1C84.95 197.727 84.2462 195.407 82.9276 193.433C81.6091 191.46 79.7349 189.922 77.5422 189.013C75.3495 188.105 72.9367 187.868 70.6089 188.331C68.2811 188.794 66.1429 189.936 64.4647 191.615C62.7865 193.293 61.6436 195.431 61.1806 197.759C60.7175 200.087 60.9552 202.499 61.8634 204.692C62.7717 206.885 64.3098 208.759 66.2832 210.078C68.2565 211.396 70.5766 212.1 72.95 212.1C76.1326 212.1 79.1848 210.836 81.4353 208.585C83.6857 206.335 84.95 203.283 84.95 200.1V200.1ZM171.77 157.75C171.77 155.377 171.066 153.057 169.748 151.083C168.429 149.11 166.555 147.572 164.362 146.663C162.169 145.755 159.757 145.518 157.429 145.981C155.101 146.444 152.963 147.586 151.285 149.265C149.606 150.943 148.464 153.081 148.001 155.409C147.538 157.737 147.775 160.149 148.683 162.342C149.592 164.535 151.13 166.409 153.103 167.728C155.077 169.046 157.397 169.75 159.77 169.75C162.951 169.747 166.001 168.482 168.249 166.232C170.497 163.982 171.76 160.931 171.76 157.75H171.77Z" fill="url(#paint0_linear)"/>
</g>
<defs>
<linearGradient id="paint0_linear" x1="0.95581" y1="138.33" x2="243.896" y2="138.33" gradientUnits="userSpaceOnUse">
<stop offset="0.02" stop-color="#2ABCF1"/>
<stop offset="1" stop-color="#6A4DE3"/>
</linearGradient>
<clipPath id="clip0">
<rect width="242.95" height="276.68" fill="white" transform="translate(0.950012)"/>
</clipPath>
</defs>
</svg>
