<?xml version="1.0" encoding="UTF-8" standalone="no"?><!DOCTYPE svg PUBLIC "-//W3C//DTD SVG 1.1//EN" "http://www.w3.org/Graphics/SVG/1.1/DTD/svg11.dtd"><svg width="100%" height="100%" viewBox="0 0 518 517" version="1.1" xmlns="http://www.w3.org/2000/svg" xmlns:xlink="http://www.w3.org/1999/xlink" xml:space="preserve" xmlns:serif="http://www.serif.com/" style="fill-rule:evenodd;clip-rule:evenodd;stroke-linejoin:round;stroke-miterlimit:2;"><g><g><g><path d="M303.674,109.132c-2.809,0 -5.004,0.829 -6.584,2.487c-1.58,1.658 -2.37,3.899 -2.37,6.723l0,28.658c0,0.131 -0.069,0.253 -0.182,0.32c-0.113,0.066 -0.253,0.069 -0.368,0.005c-24.867,-13.631 -53.413,-22.397 -84.675,-25.417c-15.057,-1.454 -31.119,-1.091 -45.801,1.735c-2.427,0.521 -4.945,-0.329 -6.56,-2.215c-1.614,-1.886 -2.066,-4.505 -1.176,-6.823c27.266,-68.987 96.724,-114.808 175.657,-114.604c102.753,0.267 186.174,83.905 186.174,186.658c0,78.963 -45.29,144.91 -114.314,171.618c-2.274,0.857 -4.834,0.41 -6.684,-1.166c-1.85,-1.576 -2.697,-4.032 -2.214,-6.413c2.571,-13.547 2.401,-27.18 1.092,-42.131c-2.413,-27.559 -9.377,-52.936 -20.241,-75.535c-0.137,-0.284 -0.04,-0.627 0.226,-0.797c1.206,-0.781 2.349,-1.629 3.429,-2.545c7.315,-6.201 10.973,-14.889 10.973,-26.064c0,-8.105 -1.96,-14.858 -5.881,-20.262c-3.922,-5.403 -9.452,-9.148 -16.592,-11.236c6.203,-2.456 11.032,-6.201 14.485,-11.236c3.453,-5.035 5.179,-10.991 5.179,-17.867c0,-10.684 -3.599,-19.004 -10.798,-24.959c-7.198,-5.956 -17.177,-8.934 -29.935,-8.934l-0.833,0c-0.207,0 -0.375,-0.168 -0.375,-0.375c0,-2.302 0,-14.44 0,-14.44c0,-4.025 -3.268,-7.293 -7.294,-7.293c-4.025,0 -7.293,3.268 -7.293,7.293l0,14.39c0,0.235 -0.191,0.425 -0.426,0.425c-0.753,0 -2.314,0 -3.066,0c-0.112,0 -0.219,-0.044 -0.298,-0.124c-0.079,-0.079 -0.124,-0.186 -0.124,-0.298c0,-2.418 0,-14.393 0,-14.393c0,-4.025 -3.268,-7.293 -7.294,-7.293c-4.025,0 -7.293,3.268 -7.293,7.293l0,14.076c0,0.196 -0.078,0.384 -0.217,0.523c-0.138,0.138 -0.326,0.216 -0.522,0.216c-2.076,0 -7.805,0 -7.805,0Zm42.84,71.469c8.896,0 15.48,1.812 19.752,5.434c4.272,3.623 6.409,9.118 6.409,16.486c0,6.462 -1.676,11.409 -5.028,14.843c-0.096,0.096 -0.23,0.142 -0.364,0.125c-0.134,-0.016 -0.253,-0.094 -0.323,-0.21c-7.959,-13.309 -17.387,-25.471 -28.125,-36.338c-0.057,-0.057 -0.074,-0.143 -0.043,-0.217c0.031,-0.074 0.104,-0.123 0.184,-0.123c1.727,0 7.538,0 7.538,0Zm-2.809,-15.288l-22.059,0c-0.183,0 -0.361,-0.062 -0.505,-0.175c-2.636,-2.076 -5.331,-4.085 -8.083,-6.028c-0.379,-0.268 -0.605,-0.703 -0.605,-1.167c0,-4.557 0,-28.699 0,-32.899c0,-0.166 0.066,-0.324 0.182,-0.441c0.117,-0.117 0.276,-0.182 0.441,-0.182c4.402,0 30.629,0 30.629,0c8.779,0 15.304,1.657 19.576,4.973c4.273,3.316 6.409,8.412 6.409,15.288c0,13.754 -8.662,20.631 -25.985,20.631Z" style="fill:#3c80f1;"/></g><path d="M0,329.392c0,-102.752 83.423,-185.958 186.175,-185.693c102.753,0.268 186.174,83.906 186.174,186.659c0,102.351 -82.771,185.308 -184.972,185.691l-1.202,0.002c0,0 -138.973,-0.361 -176.779,-0.459c-5.193,-0.013 -9.396,-4.227 -9.396,-9.42c0,-37.806 0,-176.78 0,-176.78Zm186.704,67.256c-8.945,0 -17.449,-1.297 -25.511,-3.89c-8.062,-2.593 -14.506,-6.174 -19.332,-10.743c-2.236,-1.976 -3.355,-4.507 -3.355,-7.594c0,-2.223 0.589,-4.106 1.766,-5.649c1.177,-1.544 2.589,-2.316 4.237,-2.316c1.648,0 3.649,0.803 6.003,2.408c10.475,8.15 22.421,12.225 35.839,12.225c9.416,0 16.655,-1.852 21.716,-5.557c5.061,-3.704 7.591,-9.014 7.591,-15.929c0,-5.433 -2.354,-9.508 -7.062,-12.225c-4.708,-2.716 -12.24,-5.309 -22.598,-7.779c-9.887,-2.223 -18.008,-4.754 -24.364,-7.594c-6.355,-2.84 -11.328,-6.699 -14.918,-11.577c-3.59,-4.877 -5.385,-11.082 -5.385,-18.614c0,-7.533 1.972,-14.232 5.915,-20.097c3.943,-5.865 9.445,-10.434 16.507,-13.707c7.062,-3.272 15.124,-4.908 24.187,-4.908c8.357,0 16.066,1.235 23.128,3.705c7.062,2.469 13.065,6.112 18.008,10.928c2.354,2.099 3.531,4.63 3.531,7.594c0,2.099 -0.618,3.951 -1.854,5.556c-1.236,1.606 -2.678,2.408 -4.325,2.408c-1.53,0 -3.472,-0.802 -5.826,-2.408c-5.415,-4.321 -10.505,-7.439 -15.272,-9.353c-4.767,-1.914 -10.505,-2.871 -17.213,-2.871c-9.063,0 -16.125,1.945 -21.186,5.834c-5.061,3.89 -7.592,9.292 -7.592,16.207c0,5.927 2.236,10.404 6.709,13.429c4.473,3.025 11.652,5.773 21.539,8.242c10.357,2.47 18.744,5.032 25.158,7.687c6.415,2.655 11.535,6.298 15.36,10.928c3.825,4.631 5.738,10.589 5.738,17.874c0,7.409 -1.972,13.984 -5.915,19.726c-3.943,5.742 -9.474,10.188 -16.595,13.336c-7.121,3.149 -15.331,4.724 -24.629,4.724Z" style="fill:#ffce00;"/></g></g></svg>