<svg viewBox="0 0 80 80" xmlns="http://www.w3.org/2000/svg" xmlns:xlink="http://www.w3.org/1999/xlink"><defs><path id="a" d="M20.98 4.8l4.88 12.06a27.11 27.11 0 0 0 20.04 49.6l4.87 12.07A40.03 40.03 0 0 1 0 40 40 40 0 0 1 21 4.8z"/><filter id="b" x="-3%" y="-2%" width="105.9%" height="104%"><feGaussianBlur in="SourceAlpha" result="shadowBlurInner1" stdDeviation="1"/><feOffset dy="1" in="shadowBlurInner1" result="shadowOffsetInner1"/><feComposite in="shadowOffsetInner1" in2="SourceAlpha" k2="-1" k3="1" operator="arithmetic" result="shadowInnerInner1"/><feColorMatrix in="shadowInnerInner1" values="0 0 0 0 0 0 0 0 0 0 0 0 0 0 0 0 0 0 0.1 0"/></filter><path id="c" d="M40 54.22a14.22 14.22 0 1 1 12.68-20.66h13.66A27.12 27.12 0 0 0 34.1 13.53L29.23 1.47A40.03 40.03 0 0 1 80 40a40 40 0 0 1-20.99 35.2l-4.87-12.06a27.16 27.16 0 0 0 12.2-16.7H52.68A14.28 14.28 0 0 1 40 54.22z"/><filter id="d" x="-3.7%" y="-2.7%" width="107.4%" height="105.3%"><feGaussianBlur in="SourceAlpha" result="shadowBlurInner1" stdDeviation="1"/><feOffset dy="2" in="shadowBlurInner1" result="shadowOffsetInner1"/><feComposite in="shadowOffsetInner1" in2="SourceAlpha" k2="-1" k3="1" operator="arithmetic" result="shadowInnerInner1"/><feColorMatrix in="shadowInnerInner1" values="0 0 0 0 0 0 0 0 0 0 0 0 0 0 0 0 0 0 0.1 0"/></filter></defs><g fill-rule="evenodd"><use fill="#FE4040" xlink:href="#a"/><use filter="url(#b)" xlink:href="#a"/><use fill="#00C46B" xlink:href="#c"/><use filter="url(#d)" xlink:href="#c"/></g></svg>