<svg id="Capa_1" enable-background="new 0 0 512 512" height="193" viewBox="0 0 512 512" width="230" xmlns="http://www.w3.org/2000/svg" xmlns:xlink="http://www.w3.org/1999/xlink"><linearGradient id="SVGID_1_" gradientUnits="userSpaceOnUse" x1="256" x2="256" y1="512" y2="0"><stop offset="0" stop-color="#ffe59a"/><stop offset="1" stop-color="#ffffd5"/></linearGradient><linearGradient id="SVGID_2_" gradientUnits="userSpaceOnUse" x1="256" x2="256" y1="407" y2="105"><stop offset="0" stop-color="#ffde00"/><stop offset="1" stop-color="#fd5900"/></linearGradient><g><g><circle cx="256" cy="256" fill="url(#SVGID_1_)" r="256"/></g><g><g><path d="m202.706 300.412h-43.527c4.129 20.246 22.084 35.53 43.527 35.53h43.527c-4.129-20.246-22.085-35.53-43.527-35.53zm168.765-106.589c0-48.896-39.549-88.823-88.824-88.823-48.974 0-88.823 39.849-88.823 88.823 0 19.508 6.402 38.088 18.008 53.294h-97.949c-4.91 0-8.882 3.973-8.882 8.882v35.529c-.001 63.67 51.801 115.472 115.47 115.472h53.294c44.082 0 79.941-35.859 79.941-79.941 0-21.928-9.004-42.625-24.6-57.631 25.534-15.675 42.365-43.961 42.365-75.605zm-115.471 159.883h-53.294c-34.28 0-62.176-27.896-62.176-62.177 0-4.909 3.973-8.882 8.882-8.882h53.294c34.28 0 62.176 27.896 62.176 62.177 0 4.909-3.972 8.882-8.882 8.882zm71.059-159.883c-4.91 0-8.882-3.973-8.882-8.882 0-4.901-3.99-8.882-8.882-8.882s-8.882 3.981-8.882 8.882c0 4.91-3.973 8.882-8.882 8.882-4.91 0-8.882-3.973-8.882-8.882 0-14.694 11.953-26.647 26.647-26.647s26.647 11.953 26.647 26.647c-.002 4.91-3.975 8.882-8.884 8.882zm71.059-17.764h-10.804c.472 2.793 1.921 5.791 1.921 17.765 0 10.072-1.753 19.874-4.529 29.401 13.259-7.692 22.294-21.884 22.294-38.284 0-4.91-3.973-8.882-8.882-8.882z" fill="url(#SVGID_2_)"/></g></g></g></svg>