<svg xmlns="http://www.w3.org/2000/svg" viewBox="0 0 446.4 446.4"><defs><style>.cls-1{fill:#e1f2fa;}.cls-2{fill:#00abe7;}.cls-3{fill:#34aee3;}.cls-4{fill:#56b9e4;}.cls-5{fill:#008dbd;}.cls-6{fill:#08a0ca;}.cls-7{fill:#79cdf1;}.cls-8{fill:#0076a7;}.cls-9{fill:#8adaff;}.cls-10{fill:#009de1;}.cls-11{fill:#00698d;}.cls-12{fill:#005371;}</style></defs><title>hitbtc</title><g id="Layer_2" data-name="Layer 2"><g id="Layer_1-2" data-name="Layer 1"><g id="Layer_1-3" data-name="Layer_1"><circle class="cls-1" cx="223.2" cy="223.2" r="223.2"/><g id="_2228384404800" data-name=" 2228384404800"><polygon class="cls-2" points="330.48 134.5 344.88 132.19 354.02 137.45 302.62 168.05 311.47 147.31 330.48 134.5"/><path class="cls-3" d="M135.65,222.12l-4.25,35.71-22.54,21.46c-25.34-14.47-51.12-28.66-76.25-43.49l57.1-20.23Z"/><path class="cls-4" d="M151.06,162.07l.72,30.24-16.13,29.81,46.73-33.77,53.5-15-3.1,30.1L207.65,222l-34.7,8.78-37.3-8.64-103,13.68C71.86,211.1,111.38,185.9,151.06,162.07Z"/><path class="cls-5" d="M135.65,222.12l72-.14-12,36.22-24.12,23L144.79,257Zm72-.14,36.5.79,26.28,14.76v.14l9.5,64.66-9.22,62-49.54-86.4Z"/><polygon class="cls-4" points="270.43 237.53 281.02 254.95 301.54 279.29 322.06 322.63 304.92 325.58 281.16 291.24 270.43 237.53"/><path class="cls-6" d="M276.84,198.94l2.88,22.1-9.29,16.49L207.65,222l38.59-21.74Zm-6.41,38.59,34.49,88.06-34.2,38.74Z"/><polygon class="cls-4" points="244.73 158.33 280.37 139.32 288.58 164.45 276.84 198.94 251.78 182.09 244.73 158.33"/><path class="cls-7" d="M281,255c7.78,0,15.62-.07,23.4,0q8.86,33.8,17.64,67.68Z"/><path class="cls-7" d="M235.87,173.38l8.86-15c10.37,13.1,20.81,26.21,31.18,39.24l.94,1.37-69.19,23,28.22-48.6-90,43.78-10.22,5,15.41-60Z"/><polygon class="cls-7" points="280.37 139.32 330.41 134.64 276.84 198.94 280.37 139.32"/><polygon class="cls-7" points="330.48 134.5 360.5 97.78 354.02 137.45 330.48 134.5"/><polygon class="cls-8" points="304.92 325.58 319.03 333.65 270.72 364.32 285.48 333.07 304.92 325.58"/><polygon class="cls-9" points="276.84 198.94 308.66 251.71 270.43 237.53 276.84 198.94"/><polygon class="cls-8" points="207.65 221.98 214.78 265.18 204.77 295.27 185.04 297.79 171.5 281.16 182.02 330.7 179.35 404.78 108.86 279.29 136.8 268.63 171.5 281.16 207.65 221.98"/><path class="cls-10" d="M135.65,222.12c12.1,19.51,23.9,39.53,35.86,59l-62.64-1.87Z"/><polygon class="cls-11" points="207.65 221.98 270.72 364.32 204.77 295.27 207.65 221.98"/><polygon class="cls-12" points="171.5 281.16 204.77 295.27 179.35 404.78 171.5 281.16"/></g></g></g></g></svg>