<?xml version="1.0" encoding="UTF-8"?>
<svg width="32px" height="32px" viewBox="0 0 32 32" version="1.1" xmlns="http://www.w3.org/2000/svg" xmlns:xlink="http://www.w3.org/1999/xlink">
    <!-- Generator: Sketch 60 (88103) - https://sketch.com -->
    <title>logo</title>
    <desc>Created with Sketch.</desc>
    <defs>
        <linearGradient x1="59.6947702%" y1="50%" x2="98.3878251%" y2="50%" id="linearGradient-1">
            <stop stop-color="#000000" stop-opacity="0" offset="0%"></stop>
            <stop stop-color="#000000" stop-opacity="0.0733695652" offset="100%"></stop>
        </linearGradient>
    </defs>
    <g id="1440" stroke="none" stroke-width="1" fill="none" fill-rule="evenodd">
        <g id="LGO-web/1440/Home" transform="translate(-130.000000, -20.000000)" fill-rule="nonzero">
            <g id="Nav" transform="translate(130.000000, 16.000000)">
                <g id="Logo" transform="translate(0.000000, 4.000000)">
                    <g id="logo">
                        <polygon id="Fill-2" fill="#77C9DC" points="24.3982979 7.57018947 5.32085106 7.57018947 5.32085106 7.65776842 9.31290781 11.6527158 9.31290781 11.5651368 20.4062411 11.5651368"></polygon>
                        <path d="M9.31290781,11.5658105 L9.31290781,21.3117754 C9.31290781,22.0573194 9.91886525,22.663635 10.6655319,22.663635 L20.4062411,22.663635 L20.4062411,15.1183719 L24.3982979,15.1183719 L24.3982979,26.660828 L10.6655319,26.660828 C7.71744682,26.660828 5.32085106,24.2602667 5.32085106,21.3117754 L5.32085106,7.57086315 L9.31290781,11.5658105 Z" id="Fill-6" fill="#054D90"></path>
                        <path d="M12.8612766,0.0247017544 C14.1934752,1.35859649 15.5234043,2.69024562 16.8578723,4.02189474 C20.5548936,4.01964912 24.2496454,4.01964912 27.9466667,4.01964912 L27.9466667,15.1174737 C29.2743262,16.4491229 30.6087944,17.7830176 31.940993,19.1146667 L31.940993,0.0247017544 L12.8612766,0.0247017544 Z" id="Fill-12" fill="#B7DB45"></path>
                        <path d="M12.8612766,13.7745965 C12.8612766,15.2477193 13.4604255,16.5816141 14.4249645,17.5494738 C15.3917731,18.5150877 16.7262411,19.1146667 18.199149,19.1146667 L31.940993,19.1146667 C30.6087944,17.7830176 29.2743262,16.4491229 27.9443971,15.1174737 L18.199149,15.1174737 C17.4570213,15.1174737 16.8578723,14.5178947 16.8578723,13.7745965 L16.8578723,4.02189474 C15.5234043,2.69024562 14.1934752,1.35859649 12.8612766,0.0247017544 L12.8612766,13.7745965 Z" id="Fill-15" fill="#00B990"></path>
                        <path d="M0.00226950355,26.594807 C0.00226950355,28.043228 0.592340426,29.3591579 1.54326241,30.3112982 C2.4941844,31.2634386 3.80822694,31.8517894 5.25617021,31.8517894 L18.1582979,31.8517894 C16.8283688,30.5201403 15.4984397,29.1884912 14.1662411,27.8568421 L5.25617021,27.8568421 C4.56170213,27.8568421 3.99432624,27.2909474 3.99432624,26.594807 L3.99432624,17.291228 C2.66212766,15.9595789 1.33219858,14.6279298 0.00226950355,13.2962807 L0.00226950355,26.594807 Z" id="Fill-9" fill="#A32293"></path>
                        <path d="M17.960851,19.1056842 C18.0380142,19.1101754 18.1174469,19.1124211 18.1968794,19.1124211 L20.4073758,19.1124211 L20.4073758,22.6649824 C21.7350355,23.9943859 23.0672341,25.326035 24.3971632,26.6599298 L24.3971632,15.1174737 L20.4073758,15.1174737 L18.1968794,15.1174737 C18.1174469,15.1174737 18.0357446,15.1084912 17.960851,15.0950175 L17.960851,19.1056842 Z" id="Fill-18" fill="#74D7F0"></path>
                        <path d="M15.2669504,14.5066667 L15.2669504,18.2388771 C15.9546099,18.6924912 16.7557446,18.9934035 17.6158866,19.0854738 C17.7520568,19.101193 17.906383,19.1079298 17.956312,19.1101754 L17.956312,15.0972632 C17.9653901,15.0995088 17.9472341,15.0950175 17.9290781,15.0905263 C17.5704965,15.0186667 17.266383,14.8008421 17.0757446,14.5066667 L15.2669504,14.5066667 Z" id="Fill-21" fill="url(#linearGradient-1)"></path>
                    </g>
                </g>
            </g>
        </g>
    </g>
</svg>