<svg xmlns="http://www.w3.org/2000/svg" xmlns:xlink="http://www.w3.org/1999/xlink" width="53.932" height="46"><defs><linearGradient x1="34.307" y1="33.896" x2="47.083" y2="13.736" id="c" gradientTransform="scale(.8674 1.15287)" gradientUnits="userSpaceOnUse"><stop stop-color="#23C4FE" offset="0%"/><stop stop-color="#4F3EFB" offset="100%"/></linearGradient><linearGradient x1="4.709" y1="-3.938" x2="-4.613" y2="11.6" id="d" gradientTransform="scale(1.15532 .86556)" gradientUnits="userSpaceOnUse"><stop stop-color="#FFF" stop-opacity=".5" offset="0%"/><stop stop-color="#FFF" stop-opacity="0" offset="100%"/></linearGradient><linearGradient x1="-370.356" y1="122.373" x2="-376.012" y2="107.154" id="e" gradientTransform="scale(.83164 1.20244)" gradientUnits="userSpaceOnUse"><stop stop-color="#FFF" stop-opacity=".5" offset="0%"/><stop stop-color="#FFF" stop-opacity="0" offset="100%"/></linearGradient><linearGradient x1="-46.659" y1="-26.979" x2="-45.987" y2="-26.587" id="a"><stop stop-color="#23C4FE" offset="0%"/><stop stop-color="#0058FB" offset="100%"/></linearGradient><linearGradient x1="41.238" y1="37.526" x2="19.188" y2="10.233" id="h" gradientTransform="scale(1.11333 .8982)" gradientUnits="userSpaceOnUse"><stop stop-color="#23C4FE" offset="0%"/><stop stop-color="#4F3EFB" offset="100%"/></linearGradient><linearGradient x1="30.052" y1="7.195" x2="13.931" y2="32.916" id="i" gradientTransform="scale(1.27237 .78593)" gradientUnits="userSpaceOnUse"><stop stop-color="#FFF" stop-opacity=".05" offset="0%"/><stop stop-color="#FFF" stop-opacity="0" offset="100%"/></linearGradient><linearGradient x1="-244.977" y1="176.643" x2="-216.6" y2="176.643" id="j" gradientTransform="scale(1.19519 .83669)" gradientUnits="userSpaceOnUse"><stop stop-color="#FFF" stop-opacity=".5" offset="0%"/><stop stop-color="#FFF" stop-opacity="0" offset="100%"/></linearGradient><linearGradient x1="-234.473" y1="177.989" x2="-234.473" y2="152.008" id="k" gradientTransform="scale(1.12012 .89276)" gradientUnits="userSpaceOnUse"><stop stop-color="#FFF" stop-opacity=".05" offset="0%"/><stop stop-color="#FFF" stop-opacity="0" offset="100%"/></linearGradient><linearGradient x1="-335.925" y1="128.541" x2="-340.32" y2="115.55" id="l" gradientTransform="scale(.8648 1.15634)" gradientUnits="userSpaceOnUse"><stop stop-color="#FFF" stop-opacity=".05" offset="0%"/><stop stop-color="#FFF" stop-opacity="0" offset="100%"/></linearGradient><linearGradient x1="38.225" y1="42.46" x2="33.159" y2="33.374" id="m" gradientTransform="scale(.95909 1.04266)" gradientUnits="userSpaceOnUse"><stop stop-color="#23C4FE" offset="0%"/><stop stop-color="#0058FB" offset="100%"/></linearGradient><linearGradient x1="23.282" y1="2.535" x2="10.508" y2="22.695" id="n" gradientTransform="scale(.8674 1.15287)" gradientUnits="userSpaceOnUse"><stop stop-color="#23C4FE" offset="0%"/><stop stop-color="#4F3EFB" offset="100%"/></linearGradient><linearGradient x1="14.185" y1="36.882" x2="23.433" y2="21.468" id="o" gradientTransform="scale(1.14596 .87263)" gradientUnits="userSpaceOnUse"><stop stop-color="#FFF" stop-opacity=".5" offset="0%"/><stop stop-color="#FFF" stop-opacity="0" offset="100%"/></linearGradient><linearGradient x1="6.548" y1="22.413" x2="18.586" y2="8.913" id="p" gradientTransform="scale(.82874 1.20665)" gradientUnits="userSpaceOnUse"><stop stop-color="#FFF" stop-opacity=".5" offset="0%"/><stop stop-color="#FFF" stop-opacity="0" offset="100%"/></linearGradient><linearGradient x1="47.659" y1="27.971" x2="46.988" y2="27.579" id="b"><stop stop-color="#23C4FE" offset="0%"/><stop stop-color="#0058FB" offset="100%"/></linearGradient><linearGradient x1="2.962" y1="10.061" x2="25.012" y2="37.352" id="s" gradientTransform="scale(1.11333 .8982)" gradientUnits="userSpaceOnUse"><stop stop-color="#23C4FE" offset="0%"/><stop stop-color="#4F3EFB" offset="100%"/></linearGradient><linearGradient x1="9.208" y1="46.25" x2="25.329" y2="20.526" id="t" gradientTransform="scale(1.27237 .78593)" gradientUnits="userSpaceOnUse"><stop stop-color="#FFF" stop-opacity=".05" offset="0%"/><stop stop-color="#FFF" stop-opacity="0" offset="100%"/></linearGradient><linearGradient x1="4.027" y1="9.345" x2="24.087" y2="37.458" id="u" gradientTransform="scale(1.19519 .83669)" gradientUnits="userSpaceOnUse"><stop stop-color="#FFF" stop-opacity=".5" offset="0%"/><stop stop-color="#FFF" stop-opacity="0" offset="100%"/></linearGradient><linearGradient x1="15.397" y1="38.887" x2="30.093" y2="20.514" id="v" gradientTransform="scale(1.12012 .89276)" gradientUnits="userSpaceOnUse"><stop stop-color="#FFF" stop-opacity=".05" offset="0%"/><stop stop-color="#FFF" stop-opacity="0" offset="100%"/></linearGradient><linearGradient x1="11.638" y1="9.448" x2="20.966" y2="-2.034" id="w" gradientTransform="scale(.8648 1.15634)" gradientUnits="userSpaceOnUse"><stop stop-color="#FFF" stop-opacity=".05" offset="0%"/><stop stop-color="#FFF" stop-opacity="0" offset="100%"/></linearGradient><linearGradient x1="13.081" y1="-2.178" x2="18.147" y2="6.907" id="x" gradientTransform="scale(.95909 1.04266)" gradientUnits="userSpaceOnUse"><stop stop-color="#23C4FE" offset="0%"/><stop stop-color="#0058FB" offset="100%"/></linearGradient><linearGradient xlink:href="#a" id="g" x1="-840.895" y1="-485.992" x2="-828.784" y2="-478.925" gradientTransform="scale(1.67861 .59573)" gradientUnits="userSpaceOnUse"/><linearGradient xlink:href="#a" id="f" x1="-840.895" y1="-485.992" x2="-828.784" y2="-478.925" gradientTransform="scale(1.67861 .59573)" gradientUnits="userSpaceOnUse"/><linearGradient xlink:href="#b" id="r" x1="870.287" y1="510.761" x2="858.02" y2="503.601" gradientTransform="scale(1.66853 .59933)" gradientUnits="userSpaceOnUse"/><linearGradient xlink:href="#b" id="q" x1="870.287" y1="510.761" x2="858.02" y2="503.601" gradientTransform="scale(1.66853 .59933)" gradientUnits="userSpaceOnUse"/></defs><g fill-rule="nonzero" fill="none"><path d="M26.84 16.378c5.166-4.4 12.929-4.106 17.734.672 5.033 5.003 5.405 12.65-.215 18.079l-5.617 5.51A4.767 4.767 0 0 1 35.399 42a4.767 4.767 0 0 1-3.343-1.361 4.586 4.586 0 0 1-1.387-3.28c0-1.23.499-2.41 1.387-3.278l5.652-5.546c3.188-3.128 3.366-8.227.249-11.426-2.953-3.032-7.778-3.349-11.117-.73z" fill="url(#c)" transform="translate(2 2)"/><g opacity=".2"><path fill="url(#d)" d="M.075 3.334l.231-.173-.026.004z" transform="translate(28.84 15.263)"/><path d="M3.425 1.695a8.496 8.496 0 0 1 3.498-.017 10.56 10.56 0 0 1 6.018 2.916c4.429 4.373 3.78 11.936-1.274 16.855l-5.604 5.45a5.193 5.193 0 0 1-.617.51c1.86 1.653 4.727 1.59 6.508-.142l5.6-5.456c5.054-4.917 5.232-12.938.214-17.888C13.537-.247 6.905-1.025 1.777 2.05c.54-.153 1.091-.272 1.648-.354z" fill="url(#e)" transform="translate(28.84 15.263)"/></g><path d="M30.3 3.797C25.57-.8 17.985-1.058 12.933 3.203c-.233.18-.455.374-.666.58L6.598 9.283c-1.752 1.703-4.575 1.766-6.406.143.05.054.095.107.147.158a4.71 4.71 0 0 0 3.285 1.324 4.71 4.71 0 0 0 3.284-1.324l5.67-5.491c.21-.206.432-.4.665-.58C18.23-.69 25.698-.498 30.448 3.956a.846.846 0 0 0-.148-.16z" fill="url(#g)" transform="translate(16.166 15.263)"/><path d="M14.035 23.052a4.617 4.617 0 0 1 0-6.545l5.65-5.645c6.795-6.664 17.698-6.617 24.435.107 6.736 6.723 6.79 17.61.12 24.4 4.845-4.836 4.983-12.635.312-17.639-4.671-5.003-12.472-5.412-17.642-.924a7.644 7.644 0 0 0-.665.594l-5.656 5.652a4.63 4.63 0 0 1-6.554 0z" fill="url(#h)" transform="translate(2 2)"/><g opacity=".2" fill="#f7f7f7"><path d="M46.783 19.16c-4.78-4.727-12.445-4.993-17.549-.61-.236.185-.46.384-.673.595l-5.728 5.66a4.727 4.727 0 0 1-5.065 1.032 4.634 4.634 0 0 1-2.942-4.203 4.629 4.629 0 0 0 2.84 4.38 4.727 4.727 0 0 0 5.167-.99l5.728-5.66c.213-.211.437-.41.673-.596 3.793-3.255 9.156-4.032 13.735-1.992 4.58 2.04 7.54 6.527 7.584 11.491a12.608 12.608 0 0 0-3.77-9.107zM48.88 34.655a12.748 12.748 0 0 1-2.095 2.713 17.213 17.213 0 0 0 5.146-12.393 17.187 17.187 0 0 1-3.05 9.68z"/></g><path d="M14.037 22.236a4.67 4.67 0 0 0 3.283 1.343 4.67 4.67 0 0 0 3.283-1.343l5.667-5.583c.21-.208.432-.404.665-.587 4.381-3.749 10.778-4.107 15.562-.873a15.864 15.864 0 0 0-3.125-8.419c-6.632-3.058-14.498-1.696-19.675 3.408l-5.66 5.583A4.536 4.536 0 0 0 12.675 19c0 1.214.49 2.379 1.362 3.236z" fill="url(#i)" transform="translate(2 2)"/><path d="M14.037 22.241a4.702 4.702 0 0 0 3.298 1.344 4.702 4.702 0 0 0 3.297-1.344l5.692-5.583a7.65 7.65 0 0 1 .669-.588c4.76-4.05 11.815-4.097 16.63-.112 4.816 3.986 5.96 10.819 2.694 16.106-.044.12-.088.239-.137.357a16.84 16.84 0 0 0 1.058-1.61c3.04-7.554.263-16.165-6.654-20.625-6.916-4.46-16.073-3.547-21.933 2.189l-5.69 5.583a3.642 3.642 0 0 0-.21.233 4.515 4.515 0 0 0 1.286 4.05z" opacity=".2" fill="url(#j)" transform="translate(2 2)"/><path d="M14.033 22.962a4.628 4.628 0 0 0 6.543 0l5.647-5.625c.21-.21.431-.408.664-.593a12.686 12.686 0 0 1 8.9-3.085 26.375 26.375 0 0 0-4.935-6.74 31.089 31.089 0 0 0-1.09-1.024 17.285 17.285 0 0 0-10.089 4.92l-5.64 5.626a4.596 4.596 0 0 0 0 6.521z" fill="url(#k)" transform="translate(2 2)"/><path d="M39.79 25.146l-.1-.093a8.381 8.381 0 0 1-2.108 3.438l-5.631 5.563a4.618 4.618 0 0 0-1.383 3.29c0 1.235.498 2.418 1.383 3.29A4.733 4.733 0 0 0 35.28 42c1.25 0 2.449-.491 3.331-1.366l4.4-4.346c.742-4.131-.3-8.258-3.222-11.142z" fill="url(#l)" transform="translate(2 2)"/><path d="M31.87 34.174a4.66 4.66 0 0 0-1.302 3.242 4.66 4.66 0 0 0 1.301 3.243 4.321 4.321 0 0 0 6.155.106 4.318 4.318 0 0 1-5.835-.385 4.66 4.66 0 0 1-1.301-3.243 4.66 4.66 0 0 1 1.301-3.242" fill="url(#m)" transform="translate(2 2)"/><path d="M23.112 25.62c-5.166 4.402-12.93 4.108-17.734-.672-5.03-5.002-5.404-12.65.212-18.077l5.614-5.51A4.766 4.766 0 0 1 14.546 0c1.255 0 2.457.49 3.343 1.361a4.586 4.586 0 0 1 1.387 3.279c0 1.23-.499 2.41-1.387 3.279l-5.647 5.554c-3.194 3.118-3.368 8.218-.25 11.417 2.953 3.035 7.781 3.352 11.12.73z" fill="url(#n)" transform="translate(2 2)"/><g opacity=".2"><path fill="url(#o)" d="M21.622 25.532l-.228.173.023-.004z" transform="translate(3.491 2)"/><path d="M18.175 27.107a8.438 8.438 0 0 1-3.498.017 10.53 10.53 0 0 1-6.02-2.937c-4.43-4.405-3.78-12.023 1.285-16.976l5.593-5.487c.192-.186.398-.358.617-.514-1.86-1.665-4.727-1.602-6.508.143L4.042 6.844c-5.055 4.953-5.232 13.033-.214 18.019 4.232 4.2 10.863 4.983 15.993 1.887-.54.153-1.09.273-1.646.357z" fill="url(#p)" transform="translate(3.491 2)"/></g><path d="M.25 7.263c4.764 4.682 12.402 4.945 17.488.603.235-.184.46-.381.673-.59l5.706-5.608a4.73 4.73 0 0 1 6.451-.146c-.05-.052-.095-.108-.149-.16A4.713 4.713 0 0 0 27.112.013a4.713 4.713 0 0 0-3.307 1.349l-5.706 5.605a8.021 8.021 0 0 1-.673.59c-5.02 4.285-12.542 4.09-17.324-.45z" fill="url(#r)" transform="translate(7.219 19.684)"/><path d="M35.172 19.688a4.617 4.617 0 0 1 0 6.544l-5.653 5.646c-6.796 6.662-17.699 6.612-24.434-.112C-1.65 25.043-1.7 14.156 4.97 7.368.125 12.204-.013 20.002 4.657 25.005c4.671 5.003 12.472 5.412 17.641.925.233-.186.456-.384.667-.594l5.654-5.648a4.63 4.63 0 0 1 6.553 0z" fill="url(#s)" transform="translate(2 2)"/><g opacity=".2" fill="#f7f7f7"><path d="M7.333 27.655c4.753 4.726 12.374 4.993 17.449.61.235-.186.459-.385.671-.596l5.694-5.658a4.68 4.68 0 0 1 5.036-1.033 4.633 4.633 0 0 1 2.926 4.203 4.63 4.63 0 0 0-2.823-4.382 4.68 4.68 0 0 0-5.14.99l-5.693 5.66c-.212.21-.436.41-.671.595a12.863 12.863 0 0 1-13.657 1.996C6.571 28 3.627 23.512 3.585 18.547a12.645 12.645 0 0 0 3.748 9.108zM5.25 12.16A12.713 12.713 0 0 1 7.33 9.44a17.262 17.262 0 0 0-5.12 12.394A17.24 17.24 0 0 1 5.25 12.16z"/></g><path d="M35.915 19.764a4.67 4.67 0 0 0-3.283-1.343 4.67 4.67 0 0 0-3.283 1.343l-5.664 5.583a7.97 7.97 0 0 1-.668.588c-4.38 3.748-10.778 4.107-15.561.872a15.866 15.866 0 0 0 3.125 8.42c6.63 3.057 14.494 1.694 19.67-3.408l5.664-5.583A4.536 4.536 0 0 0 37.278 23c0-1.214-.49-2.378-1.363-3.236z" fill="url(#t)" transform="translate(2 2)"/><path d="M35.91 19.016a4.7 4.7 0 0 0-3.296-1.342 4.7 4.7 0 0 0-3.297 1.342l-5.688 5.58a7.992 7.992 0 0 1-.67.588c-4.759 4.044-11.81 4.09-16.622.107C1.524 21.31.38 14.483 3.642 9.2c.045-.12.087-.239.136-.357a16.831 16.831 0 0 0-1.058 1.609c-3.049 7.553-.273 16.167 6.647 20.628 6.92 4.461 16.08 3.543 21.937-2.2l5.687-5.58c.077-.075.144-.154.212-.232a4.512 4.512 0 0 0-1.293-4.05z" opacity=".2" fill="url(#u)" transform="translate(2 2)"/><path d="M35.176 19.775a4.629 4.629 0 0 0-6.544 0L22.987 25.4c-.211.21-.433.408-.666.593a12.68 12.68 0 0 1-8.9 3.084 26.333 26.333 0 0 0 4.935 6.742c.357.353.722.692 1.09 1.023a17.283 17.283 0 0 0 10.08-4.92l5.646-5.626a4.596 4.596 0 0 0 .004-6.521z" fill="url(#v)" transform="translate(2 2)"/><path d="M10.169 16.852c.032.032.068.062.1.095a8.355 8.355 0 0 1 2.104-3.431l5.629-5.57a4.617 4.617 0 0 0 1.383-3.29 4.617 4.617 0 0 0-1.383-3.29A4.733 4.733 0 0 0 14.672 0c-1.25 0-2.45.491-3.332 1.366l-4.4 4.337c-.743 4.139.308 8.265 3.229 11.15z" fill="url(#w)" transform="translate(2 2)"/><path d="M17.338 7.826a4.66 4.66 0 0 0 1.301-3.242 4.66 4.66 0 0 0-1.301-3.243 4.321 4.321 0 0 0-6.155-.106 4.318 4.318 0 0 1 5.835.385 4.66 4.66 0 0 1 1.301 3.243 4.66 4.66 0 0 1-1.301 3.242" fill="url(#x)" transform="translate(2 2)"/></g></svg>