<?xml version="1.0" encoding="UTF-8"?>
<svg width="52px" height="50px" viewBox="0 0 52 50" version="1.1" xmlns="http://www.w3.org/2000/svg" xmlns:xlink="http://www.w3.org/1999/xlink">
    <!-- Generator: Sketch 49 (51002) - http://www.bohemiancoding.com/sketch -->
    <title>Group 49</title>
    <desc>Created with Sketch.</desc>
    <defs></defs>
    <g id="Page-1" stroke="none" stroke-width="1" fill="none" fill-rule="evenodd">
        <g id="4-copy" fill-rule="nonzero">
            <g id="Group-49">
                <path d="M28.5638783,34.5470525 L14.4968463,29.5074426 L3.96697899,37.6097989 C8.34762146,45.0160764 16.2926376,50 25.3532211,50 C39.1481635,50 50.3310459,38.5564659 50.3310459,24.4399895 C50.3310459,23.2705773 50.249419,22.1011651 50.0861652,20.959596 L28.5638783,34.5470525 Z" id="Shape" fill="#6e4cbf"></path>
                <g id="Group" transform="translate(1.239681, 0.000000)" fill="#6e4cbf">
                    <path d="M14.2775066,19.2324063 L14.2775066,2.27538328 C13.2460518,2.76296541 12.268884,3.33181124 11.3460034,3.95483285 L11.3460034,19.3949337 L12.4317453,18.5822968 L14.2775066,19.2324063 Z" id="Shape"></path>
                    <path d="M19.8690777,0.352142651 C18.8647664,0.568845821 17.8875986,0.839724783 16.9375744,1.16477954 L16.9375744,20.1263069 L19.8690777,21.1556469 L19.8690777,0.352142651 Z" id="Shape"></path>
                    <path d="M3.14865165,12.9480144 C1.27574679,16.442353 0.190004841,20.4242738 0.190004841,24.6770735 C0.190004841,25.6793256 0.244291938,26.6815778 0.380009682,27.656742 L3.14865165,25.570974 L3.14865165,12.9480144 Z" id="Shape"></path>
                    <path d="M8.71307914,5.95933717 C7.65448074,6.88032564 6.65016943,7.9096657 5.78157588,8.99318155 L5.78157588,23.5935576 L8.71307914,21.3723501 L8.71307914,5.95933717 Z" id="Shape"></path>
                    <path d="M36.5895037,2.60043804 C35.6394795,2.11285591 34.6623117,1.67944957 33.6580004,1.30021902 L33.6580004,19.584549 L36.5895037,17.7696599 L36.5895037,2.60043804 Z" id="Shape"></path>
                    <polygon id="Shape" points="25.4335051 0.0541757924 22.5020019 0.0541757924 22.5020019 22.1037233 25.4335051 23.1059755"></polygon>
                    <path d="M31.0250762,0.514670028 C30.2922004,0.325054755 29.532181,0.189615274 28.7450181,0.0812636887 L28.0664294,0.0812636887 L28.0664294,23.0247118 L30.9979326,21.2098227 L30.9979326,0.514670028 L31.0250762,0.514670028 Z" id="Shape"></path>
                    <path d="M42.1539312,6.55527089 C41.2310505,5.68845821 40.2538827,4.90290922 39.2224279,4.19862391 L39.2224279,16.1985619 L42.1539312,14.3836729 L42.1539312,6.55527089 Z" id="Shape"></path>
                    <path d="M44.7868554,9.42658789 L44.7868554,12.7583991 L46.3883248,11.7832349 C45.9268844,10.970598 45.3840134,10.185049 44.7868554,9.42658789 Z" id="Shape"></path>
                </g>
                <path d="M49.4997616,13.8888889 C48.1913978,13.8888889 47.1556099,14.9873257 47.1556099,16.3110829 C47.1556099,16.4237431 47.1556099,16.5645684 47.1828675,16.6772286 L30.1468812,27.4926067 C29.7380176,27.1264611 29.192866,26.9011407 28.5931993,26.9011407 C27.7754719,26.9011407 27.0667749,27.3236164 26.6306537,27.9714125 L16.4090619,24.2536262 C16.3545468,22.9580341 15.3187588,21.9440924 14.0649102,21.9440924 C12.7565465,21.9440924 11.7207585,23.0425292 11.7207585,24.3662864 C11.7207585,24.6197719 11.7480161,24.8732573 11.8297888,25.0985777 L3.51622756,31.5765385 C3.16187904,31.3793832 2.78027295,31.266723 2.3441517,31.266723 C1.03578796,31.266723 0,32.3651598 0,33.6889171 C0,35.0126743 1.06304554,36.1111111 2.3441517,36.1111111 C3.62525787,36.1111111 4.68830341,35.0126743 4.68830341,33.6889171 C4.68830341,33.4917617 4.66104583,33.2946064 4.60653068,33.1256161 L13.0291223,26.5631601 C13.3289556,26.7321504 13.6833041,26.8166455 14.0649102,26.8166455 C14.7190921,26.8166455 15.3460164,26.5349951 15.7548801,26.0561893 L26.3035627,29.8866357 C26.5488809,30.9569075 27.4756386,31.7736938 28.5931993,31.7736938 C29.901563,31.7736938 30.937351,30.675257 30.937351,29.3514998 C30.937351,29.3233347 30.937351,29.2951697 30.937351,29.2670046 L48.1368827,18.3389663 C48.5184888,18.6206168 48.9818676,18.7896071 49.472504,18.7896071 C50.7808677,18.7896071 51.8166557,17.6911703 51.8166557,16.367413 C51.8711709,14.9873257 50.8081253,13.8888889 49.4997616,13.8888889 Z M3.54348514,33.9705675 C3.43445482,34.5620335 2.91656084,34.9845092 2.3441517,34.9845092 C2.31689413,34.9845092 2.28963655,34.9845092 2.26237897,34.9845092 C1.6081971,34.9281791 1.1175607,34.3930432 1.1175607,33.7170821 C1.1175607,33.632587 1.1175607,33.5480918 1.14481827,33.4635967 C1.25384859,32.8721307 1.77174257,32.449655 2.3441517,32.449655 C2.37140928,32.449655 2.39866686,32.449655 2.42592444,32.449655 C3.08010631,32.5059851 3.57074271,33.041121 3.57074271,33.7170821 C3.57074271,33.7734122 3.57074271,33.8860724 3.54348514,33.9705675 Z M14.4465163,25.6055485 C14.3647436,25.6337136 14.3102284,25.6618786 14.2284557,25.6618786 C14.1739405,25.6618786 14.1194254,25.6900437 14.0649102,25.6900437 C13.3834708,25.6900437 12.8383192,25.1267427 12.8383192,24.4226165 C12.8383192,24.3944515 12.8383192,24.3662864 12.8383192,24.3381214 C12.8655768,23.6621603 13.4107284,23.1270244 14.0649102,23.1270244 C14.5555466,23.1270244 14.9644103,23.4086748 15.1552133,23.8311505 C15.2369861,24.0001408 15.2915012,24.1972962 15.2915012,24.3944515 C15.2915012,24.9577524 14.9371527,25.4365582 14.4465163,25.6055485 Z M29.5744721,30.1401211 C29.383669,30.3654415 29.1383508,30.5344318 28.8385175,30.5907619 C28.7567447,30.6189269 28.674972,30.6189269 28.5931993,30.6189269 C27.9117598,30.6189269 27.3666083,30.055626 27.3666083,29.3514998 C27.3666083,28.9571891 27.5301537,28.6192086 27.8027295,28.3938882 C28.0207901,28.1967329 28.2933659,28.0559076 28.6204569,28.0559076 C28.7840023,28.0559076 28.9748054,28.0840727 29.1110933,28.1685678 C29.5472145,28.3657231 29.8470479,28.8163639 29.8470479,29.3514998 C29.8470479,29.6331503 29.7380176,29.9148007 29.5744721,30.1401211 Z M50.6718374,16.7335587 C50.508292,17.2405295 50.0449131,17.6066751 49.4997616,17.6066751 C49.4452464,17.6066751 49.3634737,17.6066751 49.3089585,17.5785101 C48.7092918,17.4940149 48.245913,16.958879 48.245913,16.3110829 C48.245913,16.1702577 48.2731706,16.0575975 48.3004281,15.9449373 C48.4639736,15.4098014 48.9273524,15.0436558 49.472504,15.0436558 C49.5542767,15.0436558 49.6087919,15.0436558 49.6905646,15.0718209 C50.2629738,15.1844811 50.7263526,15.6914519 50.7263526,16.339248 C50.7536102,16.4800732 50.7263526,16.5927334 50.6718374,16.7335587 Z" id="Shape" fill="#FEAD36"></path>
            </g>
        </g>
    </g>
</svg>