<?xml version="1.0" encoding="UTF-8" standalone="no"?><!-- Generator: Gravit.io --><svg xmlns="http://www.w3.org/2000/svg" xmlns:xlink="http://www.w3.org/1999/xlink" style="isolation:isolate" viewBox="0 0 127.256 127.256" width="127.256pt" height="127.256pt"><defs><clipPath id="_clipPath_wGFa7oRXIEuhdszT5heZl9DxafecsCmD"><rect width="127.256" height="127.256"/></clipPath></defs><g clip-path="url(#_clipPath_wGFa7oRXIEuhdszT5heZl9DxafecsCmD)"><clipPath id="_clipPath_Fc4IpCFCLWkqRJW3tIZiDMq8hAtoWD8s"><path d=" M 0 0 L 0 127.256 L 127.256 127.256 L 127.256 0 L 0 0 Z " fill="rgb(255,255,255)"/></clipPath><g clip-path="url(#_clipPath_Fc4IpCFCLWkqRJW3tIZiDMq8hAtoWD8s)"><path d=" M 127.256 63.628 C 127.256 98.768 98.768 127.256 63.628 127.256 C 28.487 127.256 0 98.768 0 63.628 C 0 28.487 28.487 0 63.628 0 C 98.768 0 127.256 28.487 127.256 63.628 Z " fill="rgb(25,34,42)"/><path d=" M 101.82 90.161 L 25.435 90.161 L 25.435 79.221 L 101.82 79.221 L 101.82 90.161 Z " fill="rgb(254,254,254)"/><path d=" M 88.269 69.229 L 39.013 69.229 C 31.597 69.229 25.564 63.196 25.564 55.78 L 25.564 37.095 L 36.635 37.095 L 36.635 55.78 C 36.635 57.092 37.701 58.159 39.013 58.159 L 88.269 58.159 C 89.582 58.159 90.649 57.092 90.649 55.78 L 90.649 37.095 L 101.72 37.095 L 101.72 55.78 C 101.72 63.196 95.686 69.229 88.269 69.229 Z " fill="rgb(254,254,254)"/></g></g></svg>